<?xml version="1.0" encoding="UTF-8" standalone="no"?>
<!-- Created with Inkscape (http://www.inkscape.org/) -->

<svg
   width="24mm"
   height="24mm"
   viewBox="0 0 24 24"
   version="1.1"
   id="svg1"
   xml:space="preserve"
   inkscape:version="1.4.2 (ebf0e940d0, 2025-05-08)"
   sodipodi:docname="icon.svg"
   inkscape:export-filename="icon.png"
   inkscape:export-xdpi="100"
   inkscape:export-ydpi="100"
   xmlns:inkscape="http://www.inkscape.org/namespaces/inkscape"
   xmlns:sodipodi="http://sodipodi.sourceforge.net/DTD/sodipodi-0.dtd"
   xmlns="http://www.w3.org/2000/svg"
   xmlns:svg="http://www.w3.org/2000/svg"><sodipodi:namedview
     id="namedview1"
     pagecolor="#ffffff"
     bordercolor="#000000"
     borderopacity="0.25"
     inkscape:showpageshadow="2"
     inkscape:pageopacity="0.0"
     inkscape:pagecheckerboard="0"
     inkscape:deskcolor="#d1d1d1"
     inkscape:document-units="mm"
     inkscape:zoom="4.1549383"
     inkscape:cx="3.4898232"
     inkscape:cy="56.799881"
     inkscape:window-width="2560"
     inkscape:window-height="1368"
     inkscape:window-x="0"
     inkscape:window-y="0"
     inkscape:window-maximized="1"
     inkscape:current-layer="layer1" /><defs
     id="defs1" /><g
     inkscape:label="Layer 1"
     inkscape:groupmode="layer"
     id="layer1"><path
       style="fill:#00484c;fill-opacity:1"
       d="M 10.014771,22.61906 C 9.9757754,22.60293 9.903988,22.546825 9.8552436,22.494383 l -0.088626,-0.09535 -0.00943,-3.116799 -0.00943,-3.116798 H 6.6607355 c -2.8460898,0 -3.0950104,-0.0047 -3.1894055,-0.06048 C 3.2451571,15.971351 3.2600122,16.504269 3.2700448,8.8839812 l 0.00913,-6.9328431 0.1158893,-0.115894 0.1158894,-0.115894 3.5987643,-0.00936 c 2.8553853,-0.00743 3.6165167,-5.83e-5 3.6847077,0.03567 0.116789,0.061192 2.884334,2.7819114 2.965987,2.9158044 0.06069,0.099521 0.06504,0.2206567 0.06516,1.8171173 l 1.33e-4,1.7104874 h 1.68623 c 1.176842,0 1.709622,0.012017 1.763663,0.039779 0.156232,0.08026 2.961128,2.8480214 3.006097,2.9662984 0.01782,0.04686 0.03146,2.473359 0.03146,5.596486 0,4.947732 -0.0057,5.525848 -0.05592,5.631585 -0.116553,0.245617 0.244856,0.229906 -5.23157,0.227415 -2.716995,-0.0012 -4.971896,-0.01544 -5.010891,-0.03157 z m 9.483014,-5.831963 v -5.050421 l -1.27254,-0.01014 c -1.214729,-0.0097 -1.276149,-0.01336 -1.352012,-0.08104 -0.167206,-0.149171 -0.176039,-0.222936 -0.176039,-1.470058 V 9.0044313 h -3.06647 -3.06647 v 6.4165437 6.416543 h 4.466765 4.466766 z M 9.7572386,11.890918 9.7666173,8.431762 9.8990361,8.3104157 10.031455,8.1890694 h 1.489442 1.489443 v -1.469919 -1.469919 l -1.275575,-0.01014 -1.275576,-0.01014 -0.115857,-0.1158509 -0.115858,-0.1158509 -0.01057,-1.2401314 -0.01057,-1.2401314 -3.0647602,0 -3.0647599,0 V 8.9335303 15.350074 H 6.9123345 9.74786 Z M 18.576071,10.591941 C 18.390842,10.41261 18.075776,10.105977 17.875924,9.9105332 L 17.512556,9.5551811 v 0.6817889 0.681789 l 0.700147,-3.81e-4 0.700148,-3.81e-4 z M 12.366322,4.4017602 c -0.01688,-0.042219 -1.292592,-1.2821147 -1.31915,-1.2821147 -0.01213,0 -0.02206,0.2951255 -0.02206,0.6558346 v 0.6558345 h 0.676514 c 0.372083,0 0.671196,-0.0133 0.664697,-0.029554 z M 7.9763661,20.23914 C 6.9126822,20.102666 5.8536294,19.737534 4.9397352,19.192194 L 4.5984639,18.98855 4.4911089,19.110228 c -0.3335136,0.378009 -0.417539,0.466965 -0.4293312,0.454521 -0.033203,-0.03504 -0.734436,-2.236257 -0.7177196,-2.252973 0.014708,-0.01471 1.2727557,0.23561 2.2159033,0.440906 l 0.1183074,0.02575 -0.2512401,0.283604 -0.2512401,0.283605 0.097482,0.08013 c 0.1625749,0.13364 1.065883,0.563347 1.4695977,0.699093 0.5297229,0.178116 1.1243858,0.292681 1.7475302,0.336671 0.2924668,0.02065 0.5690124,0.05662 0.6145459,0.07995 0.1597425,0.08184 0.2338538,0.358 0.1434911,0.534695 -0.09084,0.177628 -0.1616845,0.200187 -0.6162349,0.196226 -0.2339735,-0.002 -0.529099,-0.01701 -0.6558346,-0.03327 z M 18.514033,6.3353152 c -0.57031,-0.2749723 -1.036928,-0.5103645 -1.036928,-0.5230939 0,-0.012729 0.137614,-0.1147245 0.305809,-0.2266559 L 18.088722,5.3820539 17.898128,5.1873933 C 17.248104,4.5235015 16.181089,3.8737407 15.231176,3.563348 14.679525,3.3830909 14.045504,3.2634694 13.516535,3.2398447 13.267374,3.2287167 13.010435,3.2034513 12.945558,3.1836993 12.729055,3.117784 12.615653,2.7825442 12.746613,2.5955732 c 0.138378,-0.1975619 0.415163,-0.227404 1.227654,-0.1323618 1.718304,0.2010008 3.276529,0.9484099 4.506579,2.1615999 0.168572,0.1662611 0.296546,0.2657099 0.326924,0.2540527 0.02746,-0.010536 0.17877,-0.1094442 0.336255,-0.2197968 0.157485,-0.1103526 0.291856,-0.1947766 0.298602,-0.1876089 0.0067,0.00717 0.0459,0.4756613 0.087,1.0410971 0.0411,0.5654357 0.08364,1.0958641 0.09452,1.1787297 0.01465,0.1115676 0.0077,0.1497973 -0.0267,0.1473222 -0.02557,-0.00184 -0.513103,-0.2283198 -1.083413,-0.5032921 z"
       id="path1" /><text
       xml:space="preserve"
       style="font-size:4.93889px;text-align:start;writing-mode:lr-tb;direction:ltr;text-anchor:start;fill:#00484c;fill-opacity:1;stroke-width:0.264583"
       x="-12.082971"
       y="8.1953402"
       id="text1"
       transform="rotate(-90)"><tspan
         sodipodi:role="line"
         id="tspan1"
         style="font-style:normal;font-variant:normal;font-weight:600;font-stretch:normal;font-size:4.93889px;font-family:'Ubuntu Sans Mono';-inkscape-font-specification:'Ubuntu Sans Mono Semi-Bold';stroke-width:0.264583"
         x="-12.082971"
         y="8.1953402">gml</tspan></text><text
       xml:space="preserve"
       style="font-size:4.93889px;text-align:start;writing-mode:lr-tb;direction:ltr;text-anchor:start;fill:#00484c;fill-opacity:1;stroke-width:0.264583"
       x="-20.907831"
       y="14.963943"
       id="text2"
       transform="rotate(-90)"><tspan
         sodipodi:role="line"
         id="tspan2"
         style="font-style:normal;font-variant:normal;font-weight:600;font-stretch:normal;font-size:4.93889px;font-family:'Ubuntu Sans Mono';-inkscape-font-specification:'Ubuntu Sans Mono Semi-Bold';stroke-width:0.264583"
         x="-20.907831"
         y="14.963943">gpkg</tspan></text><text
       xml:space="preserve"
       style="font-style:normal;font-variant:normal;font-weight:600;font-stretch:normal;font-size:3.175px;font-family:'Ubuntu Sans Mono';-inkscape-font-specification:'Ubuntu Sans Mono Semi-Bold';text-align:start;writing-mode:lr-tb;direction:ltr;text-anchor:start;fill:#00484c;fill-opacity:1;stroke-width:0.264583"
       x="3.3590801"
       y="21.112213"
       id="text3"><tspan
         sodipodi:role="line"
         id="tspan3"
         style="stroke-width:0.264583"
         x="3.3590801"
         y="21.112213" /></text></g></svg>
